<?xml version="1.0" encoding="UTF-8"?>
<svg id="_图层_1" data-name="图层_1" xmlns="http://www.w3.org/2000/svg" version="1.1" viewBox="0 0 1133.86 1133.86">
  <!-- Generator: Adobe Illustrator 29.4.0, SVG Export Plug-In . SVG Version: 2.1.0 Build 152)  -->
  <defs>
    <style>
      .st0 {
        fill: #231916;
      }
    </style>
  </defs>
  <g>
    <path class="st0" d="M399.27,744.66h14.68v43.44h22.07c.69,0,1.6-.44,2.73-1.32l2.68,3.25c-1.69,1.38-3.22,2.16-4.57,2.35-.03.03-.17.05-.42.05h-36.43v-41.94c0-1.26-.6-2.43-1.79-3.53-.25-.31-.38-.63-.38-.94.09-.91.56-1.37,1.41-1.37Z"/>
    <path class="st0" d="M476.25,744.66h14.68v47.77h-13.84c-.06,0-.09-.03-.09-.09v-41.94c0-1.22-.64-2.43-1.93-3.62-.13-.28-.19-.53-.19-.75v-.14c.19-.78.53-1.18,1.04-1.18,0-.03.11-.05.33-.05Z"/>
    <path class="st0" d="M527.25,744.66h20.52l12.47,40.38c.28.91.42,1.41.42,1.51h.05v-36.1c0-1.25-.66-2.48-1.98-3.67-.09-.28-.14-.47-.14-.56v-.38c.19-.78.56-1.18,1.13-1.18h14.03c.09,0,.14.03.14.09v47.58c0,.06-.05.09-.14.09h-19.39c-.06,0-.33-.75-.8-2.26-.22-.66-4.05-12.52-11.48-35.58-.53-1.63-.8-2.5-.8-2.59h-.05v40.34c0,.06-.05.09-.14.09h-12.94c-.06,0-.09-.03-.09-.09v-41.98c0-1.19-.64-2.37-1.93-3.53-.13-.28-.19-.5-.19-.66v-.19c.09-.88.53-1.32,1.32-1.32Z"/>
    <path class="st0" d="M606.59,744.66h14.64c.06,0,.09.03.09.09v20.61c16.41-10.89,25.24-16.76,26.5-17.6.38-.38.78-1.11,1.22-2.21,0-.06.02-.09.05-.09,2.2.72,3.55,1.15,4.05,1.27,0,.44-.5,1.52-1.51,3.25-.53.72-1.18,1.32-1.93,1.79-5.62,3.7-10.39,6.86-14.31,9.46l20.14,31.21h-12.33l-15.91-24.76c-.35-.5-.53-.75-.56-.75-1.66,1.16-3.47,2.37-5.41,3.62v21.89h-13.93v-41.56c0-1.57-.61-2.89-1.84-3.95-.22-.28-.33-.61-.33-.99.12-.85.58-1.27,1.36-1.27Z"/>
    <path class="st0" d="M733.32,744.71c1.66,2.01,2.56,3.09,2.68,3.25,0,.03-.02.05-.05.05-2.07,1.54-3.66,2.31-4.75,2.31h-23.34c-.06,0-2.1.91-6.12,2.73v14.17h26.69c.85,0,1.8-.41,2.87-1.22h.05l2.78,3.25c-1.98,1.6-3.84,2.4-5.6,2.4h-26.78v16.47h28.8c.72,0,1.63-.44,2.73-1.32.03,0,.94,1.08,2.73,3.25-1.13.97-2.23,1.63-3.29,1.98-.56.28-1.18.42-1.84.42h-43.07v-40.81c0-1.19-.64-2.37-1.93-3.53-.13-.25-.19-.47-.19-.66v-.23c0-.63.31-1.05.94-1.27.19-.03.35-.05.47-.05h14.64v2.16c3.14-1.38,4.91-2.07,5.32-2.07,0-.03.16-.05.47-.05h22.54c1.1,0,2.1-.38,3.01-1.13.09-.06.17-.09.23-.09Z"/>
  </g>
  <g>
    <path d="M483.43,448.78c-6.12,7.16-13.03,14.1-18.61,21.98-18.43,26-25.6,55.01-21.02,86.62,3.05,21.05,11.04,40.1,24.41,56.81,2.12,2.65,4.31,3.17,7.42,2.56,4.38-.87,8.81-1.51,13.25-1.95,3.6-.35,4.31.78,3.48,4.33-1.29,5.55-3.6,8.98-10.31,9.76-13.8,1.62-24.64,8.74-31.24,21.3-2.51,4.77-3.18,9.88.71,14.48,4.08,4.82,9.26,5.01,14.85,3.26,7.38-2.31,12.36-7.66,16.85-13.49,9.61-12.5,15-27.01,18.5-42.12,6.03-26.03,15.73-50.69,27.17-74.67,8.74-18.31,18-36.42,27.88-54.14,11.7-20.98,25.48-40.68,41.72-58.41,10.58-11.56,22.24-22.14,33.44-33.14.85-.84,1.88-1.49,2.59-2.46-11.69,1.5-52.89,40.06-80.49,76.59-22.64,29.96-38.6,63.72-51.25,100.06-.95-1.63-1.46-2.14-1.55-2.71-2.3-14.98-5.25-29.9-6.65-44.96-1.6-17.15,5.46-32.31,13.49-46.95,1.5-2.73,3.14-5.38,4.77-8.03.26-.42.79-.68,1.89-1.57.27,4.82.57,9.02.74,13.24.19,4.74.17,9.49.45,14.22.1,1.7.79,3.36,1.22,5.04.55-.01,1.09-.03,1.64-.04.37-2,.88-3.99,1.09-6.01,1.47-14.47,3.84-28.77,9.17-42.38,4.2-10.73,10.71-20.04,18.72-28.3.56-.58,1.2-1.09,1.85-1.58.18-.14.5-.09,1.31-.22-1.4,7.92-3.24,15.7-2.39,23.62.44.16.89.33,1.33.49.77-1.37,1.64-2.7,2.28-4.13,4.12-9.12,7.65-18.57,12.41-27.34,7-12.92,18.74-21.08,31.08-28.45,18.92-11.3,38.84-20.46,59.68-27.47,12.7-4.27,25.75-7.47,38.65-11.11.72-.2,1.54-.03,2.75-.03-.36,1.16-.4,2.16-.9,2.8-16.34,21.01-30.26,43.59-42.99,66.91-11.99,21.97-30.4,37.06-51.72,49.15-3.18,1.8-6.42,3.5-9.54,5.39-1.16.7-2.08,1.8-2.76,3.3,14.81-4.19,28.82-10.13,42.46-17.07.35.31.7.63,1.05.94-1.48,4.09-3.01,8.15-4.42,12.26-3.58,10.46-10.76,18.16-19.43,24.42-17.55,12.68-35.35,25.01-53.04,37.5-1.46,1.03-2.89,2.09-3.92,3.89,22.4-5.99,42.85-16.18,63.18-28.62,0,2.08.13,3.57-.02,5.03-1.9,18.94-12.53,32.48-27.14,43.44-21.24,15.93-42.52,31.79-63.89,47.53-3.65,2.69-5.54,5.87-6.31,10.32-3.45,19.77-9.56,38.7-20.18,55.83-7.06,11.4-16.12,20.86-29.98,23.93-14.87,3.3-29.12-3.79-36.05-17.79-6.27-12.65-2.92-27.83,8.34-37.56,1.74-1.5,3.54-2.98,5.48-4.2,2.91-1.82,3.24-3.83,1.49-6.75-7.23-12.06-12.36-24.98-15.3-38.75-5.26-24.58-3.87-48.7,4.6-72.43,8.77-24.57,23.77-44.49,44.41-60.28.86-.66,1.77-1.24,2.7-1.79.3-.18.72-.15.62-.13Z"/>
    <path d="M589.91,654.96c-4.04-1.72-7.99-3.71-12.13-5.12-16.78-5.73-33.6-11.36-50.45-16.87-5.59-1.83-5.66-1.61-4.4-7.12,2.02-8.82,2.83-9.65,11.49-6.71,21.52,7.31,42.86,15.14,64.33,22.62,12.14,4.23,24.17,8.97,36.61,12.08,16.16,4.05,31.84,1.31,46.1-7.55,12.3-7.64,15.43-19.27,9.16-32.31-.52-1.07-1.01-2.15-1.51-3.23.26-.35.52-.7.79-1.06,1.61,1.02,3.39,1.84,4.79,3.09,15.7,13.96,14.82,35.68-1.92,48.49-7.99,6.12-17.21,9.3-27.07,10.09-11.93.95-23.81.27-35.44-3.16-1.93-.57-4.66-.16-6.46.82-17.28,9.38-35.65,15.48-55.22,16.67-20.28,1.24-40.2-1.4-59.16-9.39-3.24-1.37-4.1-3.21-2.35-6.3.87-1.53,1.5-3.19,2.33-4.74,5.22-9.73,10.19-12.08,20.94-9.44,11.78,2.89,23.69,4.57,35.82,4.11,7.95-.3,15.91-.79,23.43-3.75.11-.41.23-.82.34-1.24Z"/>
    <path d="M628,641.31c48.69-37.19,64.83-84.83,47.21-143.61.47-.11.94-.21,1.41-.32,2.77,7.66,5.99,15.19,8.22,23.01,5.06,17.66,6.25,35.65,3.51,53.9-2.65,17.66-8.5,34.13-18.01,49.2-3.66,5.8-7.8,11.43-12.44,16.47-7.99,8.7-20.58,7.61-29.91,1.35Z"/>
  </g>
</svg>